<svg id="color" enable-background="new 0 0 24 24" height="512" viewBox="0 0 24 24" width="512" xmlns="http://www.w3.org/2000/svg"><path d="m12 24c-6.617 0-12-5.383-12-12s5.383-12 12-12 12 5.383 12 12-5.383 12-12 12z" fill="#00bcd4"/><path d="m20.936 20h-6.686c-1.24 0-2.25-1.009-2.25-2.25s1.01-2.25 2.25-2.25h9.268c-.785 1.96-1.109 2.774-2.582 4.5z" fill="#4dd0e1"/><path d="m23.773 9.5h-5.523c-1.24 0-2.25-1.009-2.25-2.25s1.01-2.25 2.25-2.25h3.515c1.208 1.838 1.426 2.534 2.008 4.5z" fill="#4dd0e1"/><path d="m12.88 14h-12.723c-.442-3.592.145-6.759 2.906-10h5.817c1.169 0 2.12.951 2.12 2.12 0 1.179-.951 2.13-2.12 2.13h-.76c-.336 0-.62.284-.62.62v.26c0 .336.284.62.62.62h4.76c1.169 0 2.12.951 2.12 2.12 0 1.179-.951 2.13-2.12 2.13z" fill="#80deea"/><path d="m12 14h-11.833c.955 5.668 5.897 10 11.833 10v-6.25zm-11.749-4.447c-.165.79-.251 1.609-.251 2.447 0 .602.044 1.193.13 1.771-.163-1.464-.149-2.858.121-4.218zm11.749-9.553c-4.84 0-9.021 2.881-10.916 7.017.472-1.008 1.121-2.009 1.979-3.017h5.817c1.169 0 2.12.951 2.12 2.12 0 1.179-.951 2.13-2.12 2.13h-.76c-.336 0-.62.284-.62.62v.26c0 .336.284.62.62.62h3.88z" fill="#00a4b9"/><path d="m8.88 4h-5.817c-.859 1.008-1.507 2.009-1.98 3.017-.391.838-.663 1.68-.832 2.536-.269 1.359-.283 2.754-.12 4.218.008.076.017.152.026.229h.009 11.834v-4.25h-3.88c-.336 0-.62-.284-.62-.62v-.26c0-.336.284-.62.62-.62h.76c1.169 0 2.12-.951 2.12-2.13 0-1.169-.951-2.12-2.12-2.12z" fill="#6fc1cc"/></svg>